<svg width="35" height="36" viewBox="0 0 35 36" fill="none" xmlns="http://www.w3.org/2000/svg">
<path d="M14.945 22.1725L11.2175 18.445L9.3625 20.3L14.9275 25.865L25.4275 15.365L23.5725 13.51L14.945 22.1725ZM17.5 31.745C14.2511 31.745 11.1353 30.4544 8.83794 28.1571C6.54062 25.8597 5.25 22.7439 5.25 19.495C5.25 16.2461 6.54062 13.1303 8.83794 10.8329C11.1353 8.53562 14.2511 7.245 17.5 7.245C20.7489 7.245 23.8647 8.53562 26.1621 10.8329C28.4594 13.1303 29.75 16.2461 29.75 19.495C29.75 22.7439 28.4594 25.8597 26.1621 28.1571C23.8647 30.4544 20.7489 31.745 17.5 31.745ZM17.5 3.745C13.3228 3.745 9.31677 5.40437 6.36307 8.35807C3.40937 11.3118 1.75 15.3178 1.75 19.495C1.75 23.6722 3.40937 27.6782 6.36307 30.6319C9.31677 33.5856 13.3228 35.245 17.5 35.245C21.6772 35.245 25.6832 33.5856 28.6369 30.6319C31.5906 27.6782 33.25 23.6722 33.25 19.495C33.25 15.3178 31.5906 11.3118 28.6369 8.35807C25.6832 5.40437 21.6772 3.745 17.5 3.745ZM10.29 2.6775L8.05 0L0 6.7375L2.2575 9.415L10.29 2.6775ZM35 6.755L26.95 0L24.6925 2.6775L32.7425 9.4325L35 6.755Z" fill="black"/>
</svg>
