<svg width="30" height="34" viewBox="0 0 30 34" fill="none" xmlns="http://www.w3.org/2000/svg">
<path d="M6.66667 17.3334H10V20.6667H6.66667V17.3334ZM30 7.33335V30.6667C30 32.5167 28.5167 34 26.6667 34H3.33333C1.48333 34 0 32.5 0 30.6667V7.33335C0 5.50002 1.5 4.00002 3.33333 4.00002H5V0.666687H8.33333V4.00002H21.6667V0.666687H25V4.00002H26.6667C28.5167 4.00002 30 5.50002 30 7.33335ZM3.33333 10.6667H26.6667V7.33335H3.33333V10.6667ZM26.6667 30.6667V14H3.33333V30.6667H26.6667ZM20 20.6667V17.3334H23.3333V20.6667H20ZM13.3333 20.6667V17.3334H16.6667V20.6667H13.3333ZM6.66667 24H10V27.3334H6.66667V24ZM20 27.3334V24H23.3333V27.3334H20ZM13.3333 27.3334V24H16.6667V27.3334H13.3333Z" fill="black"/>
</svg>
